<?xml version="1.0" encoding="utf-8" standalone="yes"?>
<!DOCTYPE svg PUBLIC "-//W3C//DTD SVG 1.1//EN" "http://www.w3.org/Graphics/SVG/1.1/DTD/svg11.dtd">
<svg style="fill:none;stroke:none;fill-rule:evenodd;clip-rule:evenodd;stroke-linecap:round;stroke-linejoin:round;stroke-miterlimit:1.5;" version="1.1" xmlns="http://www.w3.org/2000/svg" xmlns:xlink="http://www.w3.org/1999/xlink" width="984" height="816" viewBox="0 0 984 816"><style class="text-font-style fontImports" data-font-family="Shantell Sans">@import url(https://fonts.googleapis.com/css2?family=Shantell+Sans:wght@300..800&amp;amp;display=block);</style><g id="items" style="isolation: isolate"><g id="blend" style="mix-blend-mode: normal"><g id="g-root-cp_resolution_g-resolution_mg3mupddstfz-fill" data-item-order="-673910" transform="translate(458.02301025390625, 494)"><g id="cp_resolution_g-resolution_mg3mupddstfz-fill-merged" stroke="none" fill="#dce9ff"><g><path d="M10 94 H237.977 V106L285.977 58L237.977 10 V22 H153.975C140.952 39.363 124.835 54.311 106.333 66.037C77.519 84.298 44.111 93.995 10 94"></path></g></g></g><g id="g-root-cp_5_g-5_qvx4z5ddstfk-fill" data-item-order="-673904" transform="translate(278, 364.24798583984375)"><g id="cp_5_g-5_qvx4z5ddstfk-fill-merged" stroke="none" fill="#d1f4ff"><g><path d="M15.651 88.499C21.527 111.397 31.85 132.885 46 151.752 H185.607C171.203 151.166 157.046 147.704 143.975 141.553C129.577 134.777 116.853 124.906 106.711 112.645C96.569 100.384 89.259 86.035 85.304 70.622C81.348 55.21 80.844 39.114 83.828 23.484L13.193 10C8.224 36.028 9.063 62.833 15.651 88.499"></path></g></g></g><g id="g-root-cp_4_g-4_i0a4q9ddsu89-fill" data-item-order="-673898" transform="translate(281.18798828125, 223.656982421875)"><g id="cp_4_g-4_i0a4q9ddsu89-fill-merged" stroke="none" fill="#c8ffe5"><g><path d="M10 150.624C16.399 117.071 32.212 86.032 55.593 61.131C78.974 36.23 108.957 18.496 142.04 10L159.927 79.651C140.061 84.753 122.056 95.402 108.016 110.355C93.976 125.307 84.48 143.946 80.638 164.094L10 150.624"></path></g></g></g><g id="g-root-cp_3_g-3_i0a4q9ddsu8a-fill" data-item-order="-673892" transform="translate(413.2769775390625, 218)"><g id="cp_3_g-3_i0a4q9ddsu8a-fill-merged" stroke="none" fill="#e9ffb9"><g><path d="M10 15.644C43.086 7.158 77.904 8.26 110.386 18.823C142.869 29.387 171.676 48.974 193.442 75.298L138.023 121.122C124.952 105.314 107.654 93.552 88.148 87.209C68.642 80.866 47.734 80.204 27.866 85.3L10 15.644"></path></g></g></g><g id="g-root-cp_2_g-2_dkgmltddsv0j-fill" data-item-order="-673886" transform="translate(541.2969970703125, 283.29296875)"><g id="cp_2_g-2_dkgmltddsv0j-fill-merged" stroke="none" fill="#fff8b6"><g><path d="M65.418 10C87.185 36.323 101.013 68.296 105.287 102.185C109.561 136.073 104.104 170.478 89.554 201.382L24.494 170.75C33.231 152.193 36.508 131.533 33.941 111.183C31.375 90.833 23.071 71.633 10 55.826L65.418 10"></path></g></g></g><g id="g-root-cp_1_g-1_dkgmltddsv0k-fill" data-item-order="-673880" transform="translate(457.8909912109375, 444.0810546875)"><g id="cp_1_g-1_dkgmltddsv0k-fill-merged" stroke="none" fill="#ffe4cb"><g><path d="M172.931 40.657C158.369 71.555 135.316 97.671 106.466 115.956C77.615 134.241 44.157 143.94 10 143.919 V72.008C30.554 72.021 50.646 66.197 67.97 55.217C85.295 44.237 99.138 28.554 107.882 10L172.931 40.657"></path></g></g></g><g id="g-root-cp_problem_g-problem_4pg3g1ddssnh-fill" data-item-order="-673874" transform="translate(205, 506)"><g id="cp_problem_g-problem_4pg3g1ddssnh-fill-merged" stroke="none" fill="#ffd9d8"><g><path d="M10 10 H263 V82 H10 V10"></path></g></g></g><g id="g-root-tx_versionc_zpp2ltddn7ke-fill" data-item-order="0" transform="translate(146, 254)"><g id="tx_versionc_zpp2ltddn7ke-fill-merged" stroke="none" fill="#484848"><g><text style="font: 20px &quot;Shantell Sans&quot;, cursive; white-space: pre;" font-size="20px" font-family="'Shantell Sans', cursive"><tspan x="17.7" y="35" dominant-baseline="ideographic">Version control </tspan><tspan x="17.91" y="59" dominant-baseline="ideographic">for model code</tspan></text></g></g></g><g id="g-root-ic_2_1cvj81dddpzpf-fill" data-item-order="0" transform="translate(340, 266)"></g><g id="g-root-tx_customse_1lw644xddn8ch-fill" data-item-order="0" transform="translate(662, 266)"><g id="tx_customse_1lw644xddn8ch-fill-merged" stroke="none" fill="#e0cb15"><g><text style="font: bold 20px &quot;Shantell Sans&quot;, cursive; white-space: pre;" font-weight="bold" font-size="20px" font-family="'Shantell Sans', cursive"><tspan x="12" y="35" dominant-baseline="ideographic">Custom </tspan><tspan x="12" y="59" dominant-baseline="ideographic">Serialization</tspan></text></g></g></g><g id="g-root-ic_lock_18n7ey9ddlszu-fill" data-item-order="0" transform="translate(481, 235)"></g><g id="g-root-tx_foundrys_1lw644xddn8ci-fill" data-item-order="0" transform="translate(662, 326)"><g id="tx_foundrys_1lw644xddn8ci-fill-merged" stroke="none" fill="#484848"><g><text style="font: 20px &quot;Shantell Sans&quot;, cursive; white-space: pre;" font-size="20px" font-family="'Shantell Sans', cursive"><tspan x="12" y="35" dominant-baseline="ideographic">Foundry-specific </tspan><tspan x="12" y="59" dominant-baseline="ideographic">model </tspan><tspan x="12" y="83" dominant-baseline="ideographic">serialization</tspan></text></g></g></g><g id="g-root-tx_dataexpo_v9vkhdddn8cn-fill" data-item-order="0" transform="translate(122, 362)"><g id="tx_dataexpo_v9vkhdddn8cn-fill-merged" stroke="none" fill="#1eabda"><g><text style="font: bold 20px &quot;Shantell Sans&quot;, cursive; white-space: pre;" font-weight="bold" font-size="20px" font-family="'Shantell Sans', cursive"><tspan x="12.59" y="35" dominant-baseline="ideographic">Data Export</tspan></text></g></g></g><g id="g-root-tx_safetens_1d0j3w1ddn957-fill" data-item-order="0" transform="translate(494, 98)"><g id="tx_safetens_1d0j3w1ddn957-fill-merged" stroke="none" fill="#92bd39"><g><text style="font: bold 20px &quot;Shantell Sans&quot;, cursive; white-space: pre;" font-weight="bold" font-size="20px" font-family="'Shantell Sans', cursive"><tspan x="11.77" y="35" dominant-baseline="ideographic">Safetensors for </tspan><tspan x="65.92" y="59" dominant-baseline="ideographic">LLMs</tspan></text></g></g></g><g id="g-root-tx_modelexp_ddlenlddu9zj-fill" data-item-order="0" transform="translate(380, 374)"><g id="tx_modelexp_ddlenlddu9zj-fill-merged" stroke="none" fill="#484848"><g><text style="font: bold 20px &quot;Shantell Sans&quot;, cursive; white-space: pre;" font-weight="bold" font-size="20px" font-family="'Shantell Sans', cursive"><tspan x="13.09" y="35" dominant-baseline="ideographic">Model Export </tspan><tspan x="38.95" y="59" dominant-baseline="ideographic">Strategy</tspan></text></g></g></g><g id="g-root-ic_temp_4l2y5tddu9dz-fill" data-item-order="0" transform="translate(578, 362)"></g><g id="g-root-tx_exportda_v9vkhdddn8co-fill" data-item-order="0" transform="translate(98, 398)"><g id="tx_exportda_v9vkhdddn8co-fill-merged" stroke="none" fill="#484848"><g><text style="font: 20px &quot;Shantell Sans&quot;, cursive; white-space: pre;" font-size="20px" font-family="'Shantell Sans', cursive"><tspan x="20.92" y="35" dominant-baseline="ideographic">Export data to </tspan><tspan x="25.42" y="59" dominant-baseline="ideographic">object storage</tspan></text></g></g></g><g id="g-root-ic_uplo_1qf3wj5ddvo5r-fill" data-item-order="0" transform="translate(302, 424)"></g><g id="g-root-tx_seamless_hz1j75ddn6ru-fill" data-item-order="0" transform="translate(614, 686)"><g id="tx_seamless_hz1j75ddn6ru-fill-merged" stroke="none" fill="#484848"><g><text style="font: 20px &quot;Shantell Sans&quot;, cursive; white-space: pre;" font-size="20px" font-family="'Shantell Sans', cursive"><tspan x="46.9" y="35" dominant-baseline="ideographic">Seamless </tspan><tspan x="15.16" y="59" dominant-baseline="ideographic">integration into </tspan><tspan x="39.77" y="83" dominant-baseline="ideographic">Databricks</tspan></text></g></g></g><g id="g-root-tx_openform_1d0j3w1ddn958-fill" data-item-order="0" transform="translate(494, 158)"><g id="tx_openform_1d0j3w1ddn958-fill-merged" stroke="none" fill="#484848"><g><text style="font: 20px &quot;Shantell Sans&quot;, cursive; white-space: pre;" font-size="20px" font-family="'Shantell Sans', cursive"><tspan x="14.01" y="35" dominant-baseline="ideographic">Open format for </tspan><tspan x="29.1" y="59" dominant-baseline="ideographic">large models</tspan></text></g></g></g><g id="g-root-tx_achievin_9mlblddstfq-fill" data-item-order="0" transform="translate(296, 38)"><g id="tx_achievin_9mlblddstfq-fill-merged" stroke="none" fill="#484848"><g><text style="font: bold 25px &quot;Shantell Sans&quot;, cursive; white-space: pre;" font-weight="bold" font-size="25px" font-family="'Shantell Sans', cursive"><tspan x="13.02" y="45" dominant-baseline="ideographic">Achieving Model Portability</tspan></text></g></g></g><g id="g-root-ic_5_1ly19wxddpzpc-fill" data-item-order="0" transform="translate(513, 494)"></g><g id="g-root-ic_lock_4ikvhtddu8e8-fill" data-item-order="0" transform="translate(310, 518)"></g><g id="g-root-ic_arro_146riwhddhmo0-fill" data-item-order="0" transform="translate(614, 518)"></g><g id="g-root-tx_vendorlo_4mc2nlddn66d-fill" data-item-order="0" transform="translate(159, 602)"><g id="tx_vendorlo_4mc2nlddn66d-fill-merged" stroke="none" fill="#e55753"><g><text style="font: bold 20px &quot;Shantell Sans&quot;, cursive; white-space: pre;" font-weight="bold" font-size="20px" font-family="'Shantell Sans', cursive"><tspan x="15.94" y="35" dominant-baseline="ideographic">Vendor Lock-in</tspan></text></g></g></g><g id="g-root-tx_onnxexpo_1qbzm9dddn7k7-fill" data-item-order="0" transform="translate(398.5, 602)"><g id="tx_onnxexpo_1qbzm9dddn7k7-fill-merged" stroke="none" fill="#de8431"><g><text style="font: bold 20px &quot;Shantell Sans&quot;, cursive; white-space: pre;" font-weight="bold" font-size="20px" font-family="'Shantell Sans', cursive"><tspan x="13.95" y="35" dominant-baseline="ideographic">ONNX Export</tspan></text></g></g></g><g id="g-root-tx_modelpor_qu22cxddn94x-fill" data-item-order="0" transform="translate(632, 602)"><g id="tx_modelpor_qu22cxddn94x-fill-merged" stroke="none" fill="#4e88e7"><g><text style="font: bold 20px &quot;Shantell Sans&quot;, cursive; white-space: pre;" font-weight="bold" font-size="20px" font-family="'Shantell Sans', cursive"><tspan x="39.58" y="35" dominant-baseline="ideographic">Model </tspan><tspan x="16.5" y="59" dominant-baseline="ideographic">Portability </tspan><tspan x="25.42" y="83" dominant-baseline="ideographic">Achieved</tspan></text></g></g></g><g id="g-root-tx_modelsti_1urt4dtddn6ry-fill" data-item-order="0" transform="translate(165, 638)"><g id="tx_modelsti_1urt4dtddn6ry-fill-merged" stroke="none" fill="#484848"><g><text style="font: 20px &quot;Shantell Sans&quot;, cursive; white-space: pre;" font-size="20px" font-family="'Shantell Sans', cursive"><tspan x="13.57" y="35" dominant-baseline="ideographic">Models tied to </tspan><tspan x="66.37" y="59" dominant-baseline="ideographic">AIP</tspan></text></g></g></g><g id="g-root-tx_standard_1qbzm9dddn7k8-fill" data-item-order="0" transform="translate(380.5, 638)"><g id="tx_standard_1qbzm9dddn7k8-fill-merged" stroke="none" fill="#484848"><g><text style="font: 20px &quot;Shantell Sans&quot;, cursive; white-space: pre;" font-size="20px" font-family="'Shantell Sans', cursive"><tspan x="17.2" y="35" dominant-baseline="ideographic">Standard format </tspan><tspan x="51.47" y="59" dominant-baseline="ideographic">for model </tspan><tspan x="52.55" y="83" dominant-baseline="ideographic">exchange</tspan></text></g></g></g><g id="g-root-tx_coderepo_18lc2upddn6rp-fill" data-item-order="0" transform="translate(158, 194)"><g id="tx_coderepo_18lc2upddn6rp-fill-merged" stroke="none" fill="#3cc583"><g><text style="font: bold 20px &quot;Shantell Sans&quot;, cursive; white-space: pre;" font-weight="bold" font-size="20px" font-family="'Shantell Sans', cursive"><tspan x="101.52" y="35" dominant-baseline="ideographic">Code </tspan><tspan x="22.5" y="59" dominant-baseline="ideographic">Repositories</tspan></text></g></g></g><g id="g-root-cp_resolution_g-resolution_mg3mupddstfz-stroke" data-item-order="-673910" transform="translate(458.02301025390625, 494)"><g id="cp_resolution_g-resolution_mg3mupddstfz-stroke" fill="none" stroke-linecap="round" stroke-linejoin="round" stroke-miterlimit="4" stroke="#ffffff" stroke-width="2"><g><path d="M 10 94L 237.9766 94L 237.9766 106L 285.9766 58L 237.9766 10L 237.9766 22L 153.975 22"></path></g></g></g><g id="g-root-cp_5_g-5_qvx4z5ddstfk-stroke" data-item-order="-673904" transform="translate(278, 364.24798583984375)"><g id="cp_5_g-5_qvx4z5ddstfk-stroke" fill="none" stroke-linecap="round" stroke-linejoin="round" stroke-miterlimit="4" stroke="#ffffff" stroke-width="2"><g><path d="M 15.6506 88.4989C 21.5273 111.3966 31.8495 132.8847 46 151.752L 185.6075 151.752C 171.203 151.1662 157.0455 147.7038 143.9746 141.5526C 129.5771 134.7771 116.8532 124.9064 106.7112 112.6452C 96.5693 100.3841 89.2595 86.0349 85.3039 70.6223C 81.3482 55.2098 80.8443 39.1139 83.828 23.4841L 13.1928 10C 8.224 36.0282 9.0633 62.8325 15.6506 88.4989ZM 46 151.752C 31.8495 132.8847 21.5273 111.3966 15.6506 88.4989C 9.0633 62.8325 8.224 36.0282 13.1928 10M 185.6075 151.752C 171.203 151.1662 157.0455 147.7038 143.9746 141.5526C 129.5771 134.7771 116.8532 124.9064 106.7112 112.6452C 96.5693 100.3841 89.2595 86.0349 85.3039 70.6223C 81.3482 55.2098 80.8443 39.1139 83.828 23.4841"></path></g></g></g><g id="g-root-cp_4_g-4_i0a4q9ddsu89-stroke" data-item-order="-673898" transform="translate(281.18798828125, 223.656982421875)"><g id="cp_4_g-4_i0a4q9ddsu89-stroke" fill="none" stroke-linecap="round" stroke-linejoin="round" stroke-miterlimit="4" stroke="#ffffff" stroke-width="2"><g><path d="M 142.0403 10C 108.9567 18.4963 78.9735 36.2304 55.5926 61.1311C 32.2118 86.0318 16.3986 117.0711 10 150.6235L 80.6377 164.0944C 84.48 143.9463 93.9758 125.3074 108.0159 110.3546C 122.056 95.4018 140.0608 84.7525 159.9274 79.6506"></path></g></g></g><g id="g-root-cp_3_g-3_i0a4q9ddsu8a-stroke" data-item-order="-673892" transform="translate(413.2769775390625, 218)"><g id="cp_3_g-3_i0a4q9ddsu8a-stroke" fill="none" stroke-linecap="round" stroke-linejoin="round" stroke-miterlimit="4" stroke="#ffffff" stroke-width="2"><g><path d="M 193.4419 75.2978C 171.6758 48.974 142.8692 29.3866 110.3865 18.8235C 77.9038 8.2604 43.086 7.1577 10 15.644L 27.8663 85.2999C 47.7344 80.2039 68.6423 80.8661 88.148 87.2092C 107.6537 93.5523 124.952 105.3144 138.0225 121.1218"></path></g></g></g><g id="g-root-cp_2_g-2_dkgmltddsv0j-stroke" data-item-order="-673886" transform="translate(541.2969970703125, 283.29296875)"><g id="cp_2_g-2_dkgmltddsv0j-stroke" fill="none" stroke-linecap="round" stroke-linejoin="round" stroke-miterlimit="4" stroke="#ffffff" stroke-width="2"><g><path d="M 89.5544 201.3816C 104.1042 170.4784 109.5608 136.0732 105.2868 102.1846C 101.0128 68.296 87.1847 36.323 65.4177 10L 10 55.8261C 23.071 71.633 31.3747 90.8326 33.9412 111.1826C 36.5077 131.5326 33.2311 152.1927 24.494 170.75"></path></g></g></g><g id="g-root-cp_1_g-1_dkgmltddsv0k-stroke" data-item-order="-673880" transform="translate(457.8909912109375, 444.0810546875)"><g id="cp_1_g-1_dkgmltddsv0k-stroke" fill="none" stroke-linecap="round" stroke-linejoin="round" stroke-miterlimit="4" stroke="#ffffff" stroke-width="2"><g><path d="M 10 143.9193C 44.1571 143.9397 77.6149 134.241 106.4656 115.956C 135.3163 97.671 158.3689 71.5546 172.9307 40.657L 107.8823 10C 99.138 28.5538 85.295 44.2367 67.9702 55.2167C 50.6455 66.1968 30.5542 72.0208 10.0431 72.0085"></path></g></g></g><g id="g-root-cp_problem_g-problem_4pg3g1ddssnh-stroke" data-item-order="-673874" transform="translate(205, 506)"><g id="cp_problem_g-problem_4pg3g1ddssnh-stroke" fill="none" stroke-linecap="round" stroke-linejoin="round" stroke-miterlimit="4" stroke="#ffffff" stroke-width="2"><g><path d="M 10 10L 263 10L 263 82L 10 82L 10 10Z"></path></g></g></g><g id="g-root-tx_versionc_zpp2ltddn7ke-stroke" data-item-order="0" transform="translate(146, 254)"></g><g id="g-root-ic_2_1cvj81dddpzpf-stroke" data-item-order="0" transform="translate(340, 266)"><g id="ic_2_1cvj81dddpzpf-stroke" fill="none" stroke-linecap="round" stroke-linejoin="round" stroke-miterlimit="4" stroke="#3cc583" stroke-width="2"><g><path d="M 40.5 19L 26.5 19L 30.5 11L 44.5 11L 40.5 19ZM 21.5 41L 12.5 36L 21.5 31L 30.5 36L 21.5 41ZM 21.5 41L 21.5 46M 16 51.5C 16 54.537567 18.462433 57 21.5 57C 24.537567 57 27 54.537567 27 51.5C 27 48.462437 24.537567 46 21.5 46C 18.462433 46 16 48.462437 16 51.5M 10 10M 46.5 41L 37.5 36L 46.5 31L 55.5 36L 46.5 41ZM 46.5 31L 46.5 29C 46.5 27.89543 45.604568 27 44.5 27L 23.5 27C 22.395432 27 21.5 27.89543 21.5 29L 21.5 31M 46.5 41L 46.5 46M 41 51.5C 41 54.537567 43.462437 57 46.5 57C 49.537567 57 52 54.537567 52 51.5C 52 48.462437 49.537567 46 46.5 46C 43.462437 46 41 48.462437 41 51.5M 34.5 19L 34.5 27"></path></g></g></g><g id="g-root-tx_customse_1lw644xddn8ch-stroke" data-item-order="0" transform="translate(662, 266)"></g><g id="g-root-ic_lock_18n7ey9ddlszu-stroke" data-item-order="0" transform="translate(481, 235)"><g id="ic_lock_18n7ey9ddlszu-stroke" fill="none" stroke-linecap="round" stroke-linejoin="round" stroke-miterlimit="4" stroke="#92bd39" stroke-width="2"><g><path d="M 19 33L 38 33M 19 21L 33 21M 19 39L 32 39M 19 45L 32 45M 19 27L 38 27M 33 57L 13 57C 11.895431 57 11 56.104568 11 55L 11 13C 11 11.895431 11.895431 11 13 11L 39.585999 11C 40.11639 11.000113 40.625015 11.210901 41 11.586L 48.414001 19C 48.789101 19.374985 48.999886 19.88361 49 20.414L 49 27M 41 41L 55 41C 55 41 57 41 57 43L 57 54.998001C 57 54.998001 57 56.998001 55 56.998001L 41 56.998001C 41 56.998001 39 56.998001 39 54.998001L 39 43C 39 43 39 41 41 41M 45.5 49.125999C 45.5 50.506714 46.619289 51.625999 48 51.625999C 49.380711 51.625999 50.5 50.506714 50.5 49.125999C 50.5 47.745289 49.380711 46.625999 48 46.625999C 46.619289 46.625999 45.5 47.745289 45.5 49.125999M 53 38C 53 35.238579 50.761425 33 48 33C 45.238575 33 43 35.238579 43 38L 43 41L 53 41Z"></path></g></g></g><g id="g-root-tx_foundrys_1lw644xddn8ci-stroke" data-item-order="0" transform="translate(662, 326)"></g><g id="g-root-tx_dataexpo_v9vkhdddn8cn-stroke" data-item-order="0" transform="translate(122, 362)"></g><g id="g-root-tx_safetens_1d0j3w1ddn957-stroke" data-item-order="0" transform="translate(494, 98)"></g><g id="g-root-tx_modelexp_ddlenlddu9zj-stroke" data-item-order="0" transform="translate(380, 374)"></g><g id="g-root-ic_temp_4l2y5tddu9dz-stroke" data-item-order="0" transform="translate(578, 362)"><g id="ic_temp_4l2y5tddu9dz-stroke" fill="none" stroke-linecap="round" stroke-linejoin="round" stroke-miterlimit="4" stroke="#e0cb15" stroke-width="2"><g><path d="M 22 11.5C 18.732 11.5 16 14.232 16 17.5L 16 42.5L 50.5 42.5C 51.295601 42.5 52 41.795601 52 41L 52 13C 52 12.20436 51.295601 11.5 50.5 11.5L 22 11.5ZM 52 51.5L 33.2812 51.5M 23.21876 51.5L 20.5 51.5C 19.30652 51.5 18.16194 51.025799 17.31802 50.181999C 16.4741 49.338001 16 48.193401 16 47L 16 42.437599M 49 51.5L 49 42.5M 23.25 47.5L 23.25 56.5L 28.25 52.875L 33.25 56.5L 33.25 47.5"></path></g></g></g><g id="g-root-tx_exportda_v9vkhdddn8co-stroke" data-item-order="0" transform="translate(98, 398)"></g><g id="g-root-ic_uplo_1qf3wj5ddvo5r-stroke" data-item-order="0" transform="translate(302, 424)"><g id="ic_uplo_1qf3wj5ddvo5r-stroke" fill="none" stroke-linecap="round" stroke-linejoin="round" stroke-miterlimit="4" stroke="#1eabda" stroke-width="2"><g><path d="M 42.599998 41.781998L 47.400002 41.781998C 47.400002 41.781998 56 40.66 56 32.216C 56.001884 29.619894 54.946335 27.134996 53.076595 25.333933C 51.206856 23.532867 48.684216 22.571007 46.089996 22.669998C 43.484447 17.13982 37.459858 14.081257 31.45772 15.241486C 25.45558 16.401712 21.004866 21.485176 20.647999 27.587999C 18.534271 27.143476 16.332771 27.675255 14.655016 29.035618C 12.977261 30.395981 12.00195 32.440033 12 34.599998C 12 41.889999 19.652 41.776001 19.652 41.776001L 25.378 41.776001M 34 30.782L 34 52.782001M 40 36.781998L 34 30.782L 28 36.781998"></path></g></g></g><g id="g-root-tx_seamless_hz1j75ddn6ru-stroke" data-item-order="0" transform="translate(614, 686)"></g><g id="g-root-tx_openform_1d0j3w1ddn958-stroke" data-item-order="0" transform="translate(494, 158)"></g><g id="g-root-tx_achievin_9mlblddstfq-stroke" data-item-order="0" transform="translate(296, 38)"></g><g id="g-root-ic_5_1ly19wxddpzpc-stroke" data-item-order="0" transform="translate(513, 494)"><g id="ic_5_1ly19wxddpzpc-stroke" fill="none" stroke-linecap="round" stroke-linejoin="round" stroke-miterlimit="4" stroke="#de8431" stroke-width="2"><g><path d="M 29.799999 23.692001L 27.142 25.218L 24.098 24.018L 20.546 26.056L 20.046 29.288L 17.388 30.813999L 11.282 20.181999C 10.724598 19.204746 11.062654 17.960735 12.038 17.4L 20.897999 12.312C 21.368889 12.038937 21.929245 11.964976 22.454853 12.106516C 22.980465 12.248055 23.427908 12.593401 23.698 13.066ZM 20.296 27.672001L 27.068001 39.466M 25.612 24.619999L 32.295998 36.260002M 48.577999 38.426003L 46.237999 36.444L 46.332001 33.174L 43.214001 30.532L 40 31.16L 37.66 29.177999L 45.599998 19.824001C 46.329727 18.963303 47.618881 18.856768 48.48 19.585999L 56.279999 26.186001C 56.693802 26.53614 56.951408 27.036442 56.996052 27.57666C 57.040695 28.11688 56.868713 28.652683 56.518002 29.066ZM 41.608002 30.846001L 36.246002 37.174M 46.285999 34.809998L 42.046001 39.812M 31.472 45.549999C 31.472 46.82909 32.508911 47.866001 33.788002 47.866001C 35.067093 47.866001 36.104 46.82909 36.104 45.549999C 36.104 44.270908 35.067093 43.234001 33.788002 43.234001C 32.508911 43.234001 31.472 44.270908 31.472 45.549999M 35.753998 36.599998L 36.436001 38.841999C 36.669144 39.614788 37.461288 40.074684 38.248001 39.893997L 40.52 39.365997C 41.404137 39.166527 42.315048 39.566597 42.766357 40.352604C 43.217667 41.138611 43.103981 42.126987 42.486 42.790001L 40.896 44.504002C 40.348335 45.097649 40.348335 46.012348 40.895996 46.605999L 42.486 48.321999C 43.103981 48.985012 43.217667 49.973392 42.766357 50.759399C 42.315048 51.545403 41.404137 51.945477 40.52 51.746002L 38.248001 51.217999C 37.461288 51.037312 36.669144 51.497211 36.435997 52.27L 35.753998 54.512001C 35.492943 55.38018 34.693581 55.974537 33.786999 55.974537C 32.880417 55.974537 32.081055 55.38018 31.819998 54.511997L 31.138 52.27C 30.90572 51.497494 30.114202 51.037453 29.327999 51.217999L 27.054001 51.745998C 26.169865 51.945477 25.258953 51.545403 24.807644 50.759399C 24.356333 49.973392 24.47002 48.985012 25.088001 48.322002L 26.688 46.605999C 27.237593 46.013107 27.237593 45.096893 26.688002 44.504002L 25.088001 42.790001C 24.47002 42.126987 24.356333 41.138611 24.807644 40.352604C 25.258953 39.566597 26.169865 39.166527 27.054001 39.366001L 29.327999 39.893997C 30.114202 40.074543 30.90572 39.614502 31.137999 38.841995L 31.82 36.599998C 32.081055 35.731819 32.880417 35.137459 33.786999 35.137459C 34.693581 35.137459 35.492943 35.731819 35.753998 36.599998ZM 18.757999 20.653999C 18.757999 21.078156 19.101845 21.422001 19.526001 21.422001C 19.950155 21.422001 20.294001 21.078156 20.294001 20.653999C 20.294001 20.229847 19.950155 19.886002 19.526001 19.886002C 19.101845 19.886002 18.757999 20.229847 18.757999 20.653999M 47.327999 27.993999C 47.328003 28.418156 47.671848 28.762001 48.096001 28.762001C 48.520157 28.762001 48.864002 28.418156 48.864002 27.994001C 48.864002 27.569845 48.520157 27.226 48.096001 27.226C 47.671848 27.226 47.328003 27.569845 47.328003 27.994001"></path></g></g></g><g id="g-root-ic_lock_4ikvhtddu8e8-stroke" data-item-order="0" transform="translate(310, 518)"><g id="ic_lock_4ikvhtddu8e8-stroke" fill="none" stroke-linecap="round" stroke-linejoin="round" stroke-miterlimit="4" stroke="#e55753" stroke-width="2"><g><path d="M 40.98 41.02L 54.98 41.02C 54.98 41.02 56.98 41.02 56.98 43.02L 56.98 55.02C 56.98 55.02 56.98 57.02 54.98 57.02L 40.98 57.02C 40.98 57.02 38.98 57.02 38.98 55.02L 38.98 43.02C 38.98 43.02 38.98 41.02 40.98 41.02M 45.48 49.16C 45.48 50.540714 46.599289 51.66 47.98 51.66C 49.360714 51.66 50.48 50.540714 50.48 49.16C 50.48 47.779289 49.360714 46.66 47.98 46.66C 46.599289 46.66 45.48 47.779289 45.48 49.16M 52.98 38C 52.98 35.238579 50.741425 33 47.98 33C 45.218578 33 42.98 35.238579 42.98 38L 42.98 41L 52.98 41ZM 34.98 47L 14.98 47C 12.770861 47 10.98 45.209141 10.98 43L 10.98 15C 10.98 12.790861 12.770861 11 14.98 11L 42.98 11C 45.18914 11 46.98 12.790861 46.98 15L 46.98 29M 10.98 23.02L 46.98 23.02M 10.98 35L 34.98 35M 34.98 11.02L 34.98 35M 22.98 11.02L 22.98 47"></path></g></g></g><g id="g-root-ic_arro_146riwhddhmo0-stroke" data-item-order="0" transform="translate(614, 518)"><g id="ic_arro_146riwhddhmo0-stroke" fill="none" stroke-linecap="round" stroke-linejoin="round" stroke-miterlimit="4" stroke="#4e88e7" stroke-width="2"><g><path d="M 57 24L 57 25.958C 57.004494 27.62356 55.665459 28.98134 54 29L 36 29C 34.334999 28.980259 32.99659 27.623114 33 25.958L 33 14C 33 12.343145 34.343147 11 36 11L 54 11C 55.656857 11 57 12.343145 57 14ZM 57 23L 33 23M 50 33L 40 33M 45 29L 45 33M 35 48L 35 49.958C 35.004494 51.623558 33.665459 52.981339 32 53L 14 53C 12.334999 52.980259 10.996593 51.623112 11 49.958L 11 38C 11 36.343147 12.343145 35 14 35L 32 35C 33.656853 35 35 36.343147 35 38ZM 35 47L 11 47M 28 57L 18 57M 23 53L 23 57M 15 27L 15 21.5C 14.998896 17.357407 18.357407 13.998895 22.5 14L 26 14M 19 23L 15 27L 11 23M 23 11L 26 14L 23 17"></path></g></g></g><g id="g-root-tx_vendorlo_4mc2nlddn66d-stroke" data-item-order="0" transform="translate(159, 602)"></g><g id="g-root-tx_onnxexpo_1qbzm9dddn7k7-stroke" data-item-order="0" transform="translate(398.5, 602)"></g><g id="g-root-tx_modelpor_qu22cxddn94x-stroke" data-item-order="0" transform="translate(632, 602)"></g><g id="g-root-tx_modelsti_1urt4dtddn6ry-stroke" data-item-order="0" transform="translate(165, 638)"></g><g id="g-root-tx_standard_1qbzm9dddn7k8-stroke" data-item-order="0" transform="translate(380.5, 638)"></g><g id="g-root-tx_coderepo_18lc2upddn6rp-stroke" data-item-order="0" transform="translate(158, 194)"></g></g></g><path id="w90wjghhjjxtu" d="M65.283 12.757a.35.35 0 0 0 .584.157l5.203-5.141-6.183 3.523.396 1.461zm-2.216-11.7a.35.35 0 0 0-.522.305v3.111l3.276-1.868-2.754-1.548zm3.728 2.105l-4.25 2.421v2.445l6.391-3.644-2.141-1.222zm4.708 3.303a.35.35 0 0 0 0-.609l-1.592-.9-7.365 4.199v1.782a.35.35 0 0 0 .523.305l8.435-4.777z M44.542 2.513c0-.433.355-.783.792-.783s.792.35.792.783-.355.783-.792.783-.792-.35-.792-.783zm59.171 0c0-.433.355-.783.792-.783s.792.35.792.783-.355.783-.792.783-.792-.35-.792-.783zm-85.951 7.636h-1.27v-.487c-.276.201-.864.609-1.881.609-1.202 0-2.274-.794-2.137-2.078.118-1.106 1.153-1.584 1.848-1.727l2.17-.345c0-.539-.29-.956-1.064-1.006s-1.21.305-1.571 1.017l-1.124-.605c1.218-2.631 5.029-1.764 5.029.414v4.207zm-1.27-2.86c.006.396-.062 1.112-.819 1.59-.587.37-1.841.299-1.903-.395-.049-.555.461-.791.906-.898l1.816-.297zm72.662 2.86h-1.27v-.487c-.276.201-.864.609-1.881.609-1.202 0-2.274-.794-2.137-2.078.118-1.106 1.153-1.584 1.848-1.727l2.17-.345c0-.539-.29-.956-1.064-1.006s-1.21.305-1.571 1.017l-1.124-.605c1.218-2.631 5.029-1.764 5.029.414v4.207zm-1.27-2.86c.006.396-.062 1.112-.82 1.59-.587.37-1.841.299-1.903-.395-.049-.555.461-.791.906-.898l1.816-.297zM99.096 10.149H97.85v-8.45h1.246v4.895l2.68-2.559h1.738l-2.633 2.535 2.715 3.578h-1.556l-2.077-2.707-.867.844v1.863zm6.053-6.114h-1.255v6.113h1.255V4.035zm-59.2 0h-1.255v6.113h1.255V4.035zm5.584 6.113V1.697h1.255v2.695c.361-.346 1-.485 1.47-.485 1.452 0 2.477 1.082 2.457 2.448v3.792h-1.27v-3.68c0-.408-.214-1.339-1.315-1.339-.968 0-1.342.756-1.342 1.339v3.681h-1.255zm-4.76-4.894V4.039h.621a.45.45 0 0 0 .45-.45v-.855h1.251v1.305h1.309v1.215h-1.309v3.109c0 .293.105.664.648.664.365 0 .531-.035.736-.07v1.137s-.361.113-.857.113c-1.398 0-1.777-1.051-1.777-1.788V5.254h-1.071zM36.528 4.039h-1.394l2.191 6.106h1.125l1.234-3.918 1.238 3.918h1.129l2.188-6.106h-1.383l-1.359 3.93-1.256-3.93h-1.124l-1.242 3.957-1.348-3.957zM26.212 7.141c-.02 1.566 1.187 3.129 3.223 3.129 1.566 0 2.383-.918 2.734-1.719L31.172 8c-.315.399-.801 1.094-1.738 1.094-1.145 0-1.825-.781-1.891-1.52h4.625c.074-.284.148-.995-.03-1.559-.336-1.064-1.221-2.102-2.839-2.102s-3.088 1.152-3.088 3.227zm1.363-.75h3.348c-.055-.43-.566-1.301-1.623-1.301a1.79 1.79 0 0 0-1.725 1.301zm-8.758.75c.038 1.758 1.277 3.133 3.145 3.133 1.074 0 1.723-.477 1.961-.672v.547h1.242V1.703h-1.258v2.888c-.414-.36-1.062-.68-1.93-.68-1.91 0-3.198 1.473-3.16 3.23zm1.309-.08c0 1.119.723 1.978 1.836 1.978a1.88 1.88 0 0 0 1.94-1.904c0-1.371-1.011-1.99-1.972-1.99s-1.805.798-1.805 1.916zm76.683-.028C96.771 5.275 95.532 3.9 93.664 3.9c-1.074 0-1.723.477-1.961.672v-.547h-1.242v8.22h1.258V9.583c.414.36 1.063.68 1.93.68 1.91 0 3.198-1.473 3.16-3.23zm-1.309.08c0-1.119-.723-1.978-1.836-1.978a1.88 1.88 0 0 0-1.94 1.904c0 1.371 1.011 1.99 1.972 1.99S95.5 8.231 95.5 7.113zM106.441 10.173V4.036h1.254v.382c.361-.346 1-.485 1.47-.485 1.452 0 2.477 1.082 2.457 2.448v3.792h-1.27V6.492c0-.408-.214-1.339-1.315-1.339-.969 0-1.342.756-1.342 1.339v3.681h-1.254zm-30.383-.021V1.824h1.084l4.215 5.777V1.824h1.32v8.328h-1.094l-4.207-5.796v5.796h-1.319zM5.24 10.149H4V2.377h1.014l2.664 3.597 2.654-3.592h1.03v7.766h-1.256V4.762L7.678 8.068 5.24 4.742v5.407z" transform="translate(20, 782)" fill="#80808088" stroke="none"></path></svg>